<svg width="192" height="192" viewBox="0 0 192 192" fill="none" xmlns="http://www.w3.org/2000/svg">
  <rect width="192" height="192" rx="24" fill="#7c3aed"/>
  <path d="M96 48C72 48 52 68 52 96C52 124 72 144 96 144C120 144 140 124 140 96C140 68 120 48 96 48ZM96 136C76 136 60 120 60 96C60 72 76 56 96 56C116 56 132 72 132 96C132 120 116 136 96 136Z" fill="white"/>
  <path d="M96 64C76 64 60 80 60 96C60 112 76 128 96 128C116 128 132 112 132 96C132 80 116 64 96 64ZM96 120C80 120 68 108 68 96C68 84 80 72 96 72C112 72 124 84 124 96C124 108 112 120 96 120Z" fill="white"/>
  <rect x="40" y="40" width="112" height="112" rx="16" stroke="white" stroke-width="4" fill="none"/>
  <line x1="96" y1="60" x2="96" y2="132" stroke="white" stroke-width="4"/>
  <line x1="60" y1="96" x2="132" y2="96" stroke="white" stroke-width="4"/>
</svg>
